<svg width="861" height="861" viewBox="0 0 861 861" fill="none" xmlns="http://www.w3.org/2000/svg">
<rect width="861" height="861" fill="black"/>
<path d="M173.592 412.104C178.328 412.104 182.616 413.192 186.456 415.368C190.36 417.544 193.432 420.68 195.672 424.776C197.976 428.808 199.128 433.512 199.128 438.888C199.128 444.264 197.976 449 195.672 453.096C193.432 457.192 190.36 460.36 186.456 462.6C182.616 464.776 178.328 465.864 173.592 465.864C166.744 465.864 161.624 463.848 158.232 459.816V465H140.856V393.768H159.096V417.48C162.616 413.896 167.448 412.104 173.592 412.104ZM169.752 451.368C172.952 451.368 175.576 450.28 177.624 448.104C179.672 445.864 180.696 442.792 180.696 438.888C180.696 435.048 179.672 432.04 177.624 429.864C175.576 427.688 172.952 426.6 169.752 426.6C166.552 426.6 163.928 427.688 161.88 429.864C159.832 432.04 158.808 435.048 158.808 438.888C158.808 442.792 159.832 445.864 161.88 448.104C163.928 450.28 166.552 451.368 169.752 451.368ZM235.446 451.944C237.942 451.944 240.086 451.592 241.878 450.888C243.734 450.184 245.59 449.032 247.446 447.432L256.95 457.416C252.022 463.048 244.662 465.864 234.87 465.864C228.79 465.864 223.446 464.712 218.838 462.408C214.23 460.104 210.646 456.904 208.086 452.808C205.59 448.712 204.342 444.072 204.342 438.888C204.342 433.768 205.59 429.192 208.086 425.16C210.582 421.064 214.006 417.864 218.358 415.56C222.774 413.256 227.702 412.104 233.142 412.104C238.198 412.104 242.806 413.16 246.966 415.272C251.19 417.32 254.55 420.36 257.046 424.392C259.542 428.36 260.79 433.096 260.79 438.6L223.638 445.704C225.622 449.864 229.558 451.944 235.446 451.944ZM233.238 425.064C230.102 425.064 227.542 426.056 225.558 428.04C223.574 429.96 222.454 432.744 222.198 436.392L243.318 432.264C242.678 430.088 241.462 428.36 239.67 427.08C237.878 425.736 235.734 425.064 233.238 425.064ZM331.025 412.104C337.489 412.104 342.673 414.024 346.577 417.864C350.545 421.704 352.529 427.496 352.529 435.24V465H334.289V438.216C334.289 431.112 331.441 427.56 325.745 427.56C322.609 427.56 320.081 428.584 318.161 430.632C316.305 432.68 315.377 435.752 315.377 439.848V465H297.137V412.968H314.513V418.632C316.561 416.52 318.993 414.92 321.809 413.832C324.625 412.68 327.697 412.104 331.025 412.104ZM390.843 465.864C385.275 465.864 380.251 464.712 375.771 462.408C371.291 460.104 367.771 456.904 365.211 452.808C362.715 448.712 361.467 444.072 361.467 438.888C361.467 433.768 362.715 429.16 365.211 425.064C367.771 420.968 371.259 417.8 375.675 415.56C380.155 413.256 385.211 412.104 390.843 412.104C396.475 412.104 401.531 413.256 406.011 415.56C410.491 417.8 413.979 420.968 416.475 425.064C418.971 429.096 420.219 433.704 420.219 438.888C420.219 444.072 418.971 448.712 416.475 452.808C413.979 456.904 410.491 460.104 406.011 462.408C401.531 464.712 396.475 465.864 390.843 465.864ZM390.843 451.368C394.043 451.368 396.667 450.28 398.715 448.104C400.763 445.864 401.787 442.792 401.787 438.888C401.787 435.048 400.763 432.04 398.715 429.864C396.667 427.688 394.043 426.6 390.843 426.6C387.643 426.6 385.019 427.688 382.971 429.864C380.923 432.04 379.899 435.048 379.899 438.888C379.899 442.792 380.923 445.864 382.971 448.104C385.019 450.28 387.643 451.368 390.843 451.368ZM462.173 462.888C460.637 463.848 458.749 464.584 456.509 465.096C454.333 465.608 451.997 465.864 449.501 465.864C442.717 465.864 437.501 464.2 433.853 460.872C430.269 457.544 428.477 452.584 428.477 445.992V401.352H446.717V414.888H458.525V428.52H446.717V445.8C446.717 447.72 447.197 449.192 448.156 450.216C449.117 451.24 450.429 451.752 452.093 451.752C454.205 451.752 456.061 451.208 457.661 450.12L462.173 462.888ZM514.482 419.208C516.338 416.84 518.738 415.08 521.682 413.928C524.69 412.712 528.114 412.104 531.954 412.104V428.52C530.29 428.328 528.914 428.232 527.826 428.232C523.922 428.232 520.85 429.288 518.61 431.4C516.434 433.512 515.346 436.744 515.346 441.096V465H497.106V412.968H514.482V419.208ZM566.852 451.944C569.348 451.944 571.492 451.592 573.284 450.888C575.14 450.184 576.996 449.032 578.852 447.432L588.356 457.416C583.428 463.048 576.068 465.864 566.276 465.864C560.196 465.864 554.852 464.712 550.244 462.408C545.636 460.104 542.052 456.904 539.492 452.808C536.996 448.712 535.748 444.072 535.748 438.888C535.748 433.768 536.996 429.192 539.492 425.16C541.988 421.064 545.412 417.864 549.764 415.56C554.18 413.256 559.108 412.104 564.548 412.104C569.604 412.104 574.212 413.16 578.372 415.272C582.596 417.32 585.956 420.36 588.452 424.392C590.948 428.36 592.196 433.096 592.196 438.6L555.044 445.704C557.028 449.864 560.964 451.944 566.852 451.944ZM564.644 425.064C561.508 425.064 558.948 426.056 556.964 428.04C554.98 429.96 553.86 432.744 553.604 436.392L574.724 432.264C574.084 430.088 572.868 428.36 571.076 427.08C569.284 425.736 567.14 425.064 564.644 425.064ZM655.614 412.968V465H638.238V459.816C634.846 463.848 629.726 465.864 622.878 465.864C618.142 465.864 613.822 464.776 609.918 462.6C606.078 460.36 603.006 457.192 600.702 453.096C598.462 449 597.342 444.264 597.342 438.888C597.342 433.512 598.462 428.808 600.702 424.776C603.006 420.68 606.078 417.544 609.918 415.368C613.822 413.192 618.142 412.104 622.878 412.104C629.022 412.104 633.854 413.896 637.374 417.48V412.968H655.614ZM626.718 451.368C629.918 451.368 632.542 450.28 634.59 448.104C636.638 445.864 637.662 442.792 637.662 438.888C637.662 435.048 636.638 432.04 634.59 429.864C632.542 427.688 629.918 426.6 626.718 426.6C623.518 426.6 620.894 427.688 618.846 429.864C616.798 432.04 615.774 435.048 615.774 438.888C615.774 442.792 616.798 445.864 618.846 448.104C620.894 450.28 623.518 451.368 626.718 451.368ZM687.612 465.864C681.212 465.864 676.22 464.232 672.636 460.968C669.116 457.64 667.356 452.904 667.356 446.76V393.768H685.596V445.8C685.596 447.72 686.076 449.192 687.036 450.216C688.06 451.24 689.468 451.752 691.26 451.752C692.732 451.752 694.108 451.432 695.388 450.792L696.156 464.52C693.404 465.416 690.556 465.864 687.612 465.864ZM712.536 465.864C709.464 465.864 706.872 464.84 704.76 462.792C702.648 460.744 701.592 458.152 701.592 455.016C701.592 451.816 702.616 449.224 704.664 447.24C706.776 445.256 709.4 444.264 712.536 444.264C715.736 444.264 718.36 445.256 720.408 447.24C722.456 449.224 723.48 451.816 723.48 455.016C723.48 458.152 722.424 460.744 720.312 462.792C718.264 464.84 715.672 465.864 712.536 465.864Z" fill="white"/>
</svg>
